<svg width="14" height="14" viewBox="0 0 14 14" fill="none" xmlns="http://www.w3.org/2000/svg">
<path d="M6.36069 13.2889C6.7526 13.681 7.3887 13.6795 7.77869 13.2854L13.3037 7.70347C13.6894 7.31379 13.6894 6.68621 13.3037 6.29653L7.78042 0.716306C7.38976 0.321611 6.75232 0.320835 6.36069 0.714579L6.30027 0.775326C5.91273 1.16496 5.91222 1.79431 6.29913 2.18457L10.0071 5.92474H1C0.447715 5.92474 0 6.37246 0 6.92474V7.07526C0 7.62754 0.447715 8.07526 1 8.07526H10.0071L6.2997 11.8209C5.91266 12.212 5.9142 12.8422 6.30314 13.2313L6.36069 13.2889Z" fill="#1A1A1A"/>
</svg>
